<svg id="Layer_1" data-name="Layer 1" xmlns="http://www.w3.org/2000/svg" viewBox="0 0 24 20.08"><defs><style>.cls-1{fill:#fff;}</style></defs><title>reddit-white-outline</title><path class="cls-1" d="M2.2,14a4,4,0,0,0-.09.85c0,3.44,4.4,6.25,9.81,6.25s9.81-2.8,9.81-6.25a4.1,4.1,0,0,0-.08-0.81v0a0.46,0.46,0,0,1,0-.16,5.73,5.73,0,0,0-2.3-3.1l-0.13-.07-0.07-.06a12.87,12.87,0,0,0-7.2-2,12.93,12.93,0,0,0-7.15,2l0,0a0.4,0.4,0,0,1-.13.07,5.76,5.76,0,0,0-2.35,3.12,0.45,0.45,0,0,1,0,.17h0ZM12,19.49a5.24,5.24,0,0,1-3.86-1.2,0.45,0.45,0,0,1,0-.63,0.47,0.47,0,0,1,.64,0A4.45,4.45,0,0,0,12,18.6a4.42,4.42,0,0,0,3.22-.93,0.46,0.46,0,0,1,.63,0,0.48,0.48,0,0,1,0,.65A5.24,5.24,0,0,1,12,19.52v0ZM8.37,11.92a1.69,1.69,0,0,0-1.68,1.68,1.67,1.67,0,0,0,1.68,1.65A1.65,1.65,0,0,0,10,13.59,1.67,1.67,0,0,0,8.37,11.92Zm7.23,0a1.7,1.7,0,0,0-1.68,1.68,1.67,1.67,0,0,0,1.68,1.65,1.65,1.65,0,0,0,1.65-1.65A1.67,1.67,0,0,0,15.6,11.92Zm4.55-1.6a6.72,6.72,0,0,1,2.19,2.9,1.79,1.79,0,0,0,.72-1.45,1.82,1.82,0,0,0-2.91-1.45h0ZM2.71,10a1.82,1.82,0,0,0-1.17,3.21,6.73,6.73,0,0,1,2.21-2.88,1.82,1.82,0,0,0-1-.33h0ZM11.93,22C6,22,1.22,18.84,1.22,14.9a4.82,4.82,0,0,1,.07-0.81A2.72,2.72,0,1,1,4.52,9.75a13.78,13.78,0,0,1,7.11-2l1.81-5.52,0.4,0.1h0l4.22,1a2.26,2.26,0,1,1-.16.88l-3.85-.91L12.61,7.76a13.67,13.67,0,0,1,6.84,2,2.66,2.66,0,0,1,1.83-.72,2.71,2.71,0,0,1,1.34,5.08,6.51,6.51,0,0,1,.06.75C22.67,18.83,17.88,22,12,22h0ZM20.11,2.85A1.34,1.34,0,1,0,21.44,4.2a1.34,1.34,0,0,0-1.33-1.34h0Z" transform="translate(0 -1.96)"/></svg>